<?xml version="1.0" standalone="no"?>
<!DOCTYPE svg PUBLIC "-//W3C//DTD SVG 20010904//EN"
 "http://www.w3.org/TR/2001/REC-SVG-20010904/DTD/svg10.dtd">
<svg version="1.0" xmlns="http://www.w3.org/2000/svg"
 width="500.000000pt" height="500.000000pt" viewBox="0 0 500.000000 500.000000"
 preserveAspectRatio="xMidYMid meet">

<g transform="translate(0.000000,500.000000) scale(0.100000,-0.100000)"
fill="#000000" stroke="none">
<path d="M2945 3998 c-32 -46 -90 -310 -110 -503 -11 -106 6 -97 -181 -93
-133 2 -167 6 -174 18 -5 8 -10 105 -10 215 0 207 -10 309 -33 332 -15 15
-134 20 -147 7 -14 -14 -30 -176 -38 -373 -8 -195 -1 -180 -94 -206 -31 -8
-77 -31 -102 -50 -39 -30 -54 -35 -99 -35 -29 0 -60 -6 -69 -12 -9 -7 -31 -55
-48 -107 -32 -93 -228 -592 -236 -600 -2 -3 -75 -5 -162 -6 -180 -1 -227 -13
-327 -80 -70 -47 -79 -74 -27 -89 28 -8 44 -3 125 34 89 42 96 44 207 47 144
5 151 1 127 -64 -46 -125 -171 -504 -211 -643 -45 -157 -46 -173 -8 -182 48
-13 59 5 112 174 79 250 185 576 210 642 l22 59 82 -6 c53 -5 85 -12 92 -21 5
-8 18 -68 28 -133 33 -224 102 -454 187 -624 58 -116 120 -159 232 -159 58 0
98 19 131 63 46 60 189 388 246 562 l23 70 34 -133 c60 -241 153 -455 220
-511 44 -36 88 -51 156 -51 82 0 125 35 180 146 74 147 205 481 237 603 10 40
10 46 -6 58 -10 7 -32 13 -50 13 -31 0 -32 -2 -64 -92 -54 -155 -115 -298
-185 -439 -69 -138 -100 -189 -115 -189 -33 0 -123 389 -175 760 l-5 35 32
-37 c49 -54 95 -78 151 -78 66 0 106 19 155 75 72 81 134 209 221 452 39 108
39 113 21 123 -26 14 -46 13 -63 -4 -8 -8 -43 -86 -77 -173 -35 -87 -83 -197
-107 -246 -44 -88 -104 -167 -128 -167 -8 0 -23 12 -35 28 l-22 27 29 7 c15 4
45 10 66 13 41 7 56 27 37 50 -9 11 -34 15 -90 15 l-78 0 -16 70 c-21 91 -36
233 -36 345 0 133 27 386 42 400 7 7 38 17 69 24 69 14 95 32 85 56 -5 15 -14
17 -56 11 -28 -4 -57 -9 -65 -12 -8 -4 -18 1 -21 10 -6 17 53 342 87 478 31
123 34 118 -70 118 -82 0 -91 -2 -106 -22z m-710 -1039 l0 -369 -35 0 c-19 0
-51 -3 -70 -6 l-36 -6 -22 274 c-13 150 -26 297 -29 326 -4 35 -2 52 6 52 6 0
28 17 50 39 34 34 118 75 131 64 3 -3 5 -171 5 -374z m575 361 c0 -5 -22 -10
-48 -10 -27 0 -55 -6 -64 -12 -9 -7 -31 -55 -48 -107 -17 -51 -76 -204 -131
-340 l-99 -246 5 80 c2 44 7 127 10 185 10 184 26 414 31 438 4 22 6 22 174
22 107 0 170 -4 170 -10z m-971 -672 c0 -48 -3 -89 -7 -92 -11 -6 -110 8 -119
17 -3 4 21 75 53 159 l59 153 6 -75 c4 -41 7 -114 8 -162z m810 0 c0 -48 -3
-89 -7 -92 -11 -6 -110 8 -119 17 -3 4 21 75 53 159 l59 153 6 -75 c4 -41 7
-114 8 -162z m-45 -174 c51 -7 60 -17 69 -76 5 -36 4 -38 -22 -38 -27 0 -30
-6 -61 -92 -54 -155 -115 -298 -185 -439 -70 -139 -100 -189 -115 -189 -5 0
-18 25 -29 54 l-20 55 79 253 c43 139 91 285 105 323 14 39 32 89 41 113 15
39 18 42 53 42 21 0 59 -3 85 -6z m-247 -41 c-4 -10 -42 -123 -86 -250 l-79
-233 -12 53 c-16 74 -59 345 -62 392 l-3 40 90 6 c169 10 158 11 152 -8z"/>
</g>
</svg>
